<?xml version="1.0" encoding="UTF-8"?>
<!DOCTYPE svg PUBLIC "-//W3C//DTD SVG 1.1//EN" "http://www.w3.org/Graphics/SVG/1.1/DTD/svg11.dtd">
<!-- Creator: CorelDRAW -->
<svg xmlns="http://www.w3.org/2000/svg" xml:space="preserve" width="108.59mm" height="138.304mm" version="1.1" style="shape-rendering:geometricPrecision; text-rendering:geometricPrecision; image-rendering:optimizeQuality; fill-rule:evenodd; clip-rule:evenodd"
viewBox="0 0 10859 13830.4"
 xmlns:xlink="http://www.w3.org/1999/xlink"
 xmlns:xodm="http://www.corel.com/coreldraw/odm/2003">
 <defs>
  <style type="text/css">
   <![CDATA[
    .fil0 {fill:#5e5e5e}
   ]]>
  </style>
 </defs>
 <g id="Camada_x0020_1">
  <metadata id="CorelCorpID_0Corel-Layer"/>
  <g id="_1560628996736">
   <path class="fil0" d="M9123.07 12858.46l-7455.43 0c-450.25,0 -702.32,-300.42 -702.32,-756.34l0 -4700.17c0,-491.26 263.98,-756.34 756.35,-756.34l7401.4 0c492.37,0 756.35,265.08 756.35,756.34l0 4646.14c0,526.24 -233.28,810.37 -756.35,810.37zm-6131.82 -9454.34c0,-1331.35 1100.01,-2431.12 2431.12,-2431.12 1331.11,0 2431.12,1099.77 2431.12,2431.12l0 2269.04 -4862.24 0 0 -2269.04zm-972.45 -189.09l0 2458.13c-447.33,0 -704.65,-40.56 -1107.64,161.94 -99.88,50.19 -150.4,71.35 -239.74,138.43l-216.67 188.52c-242.46,251.83 -461.88,616.84 -461.88,1104.84l0 5024.31c0,378.37 210.31,813.25 468.39,1071.33 264.86,264.86 674.59,468.38 1071.32,468.38l7779.58 0c191.27,0 479.36,-76.23 612.76,-143.58 521.85,-263.47 926.95,-810.89 926.95,-1396.13l0 -5024.31c0,-662.77 -407.52,-1175.14 -918.29,-1431.79 -402.99,-202.5 -660.31,-161.94 -1107.64,-161.94l0 -2458.13c0,-782.43 -453.77,-1683.32 -992.47,-2222.02 -538.5,-538.49 -1442.03,-992.46 -2222.01,-992.46 -622.99,0 -1090.91,42.6 -1647.87,324.04 -889.41,449.44 -1589.95,1217.75 -1831.41,2193.44 -49.5,200.03 -113.38,462.12 -113.38,697z"/>
   <path class="fil0" d="M4936.15 9130.75l0 1296.59c0,610.08 972.44,610.08 972.44,0l0 -1296.59c0,-603.29 -972.44,-603.29 -972.44,0z"/>
  </g>
 </g>
</svg>
