<?xml version="1.0" standalone="no"?>
<!DOCTYPE svg PUBLIC "-//W3C//DTD SVG 20010904//EN"
 "http://www.w3.org/TR/2001/REC-SVG-20010904/DTD/svg10.dtd">
<svg version="1.0" xmlns="http://www.w3.org/2000/svg"
 width="512.000000pt" height="512.000000pt" viewBox="0 0 512.000000 512.000000"
 preserveAspectRatio="xMidYMid meet">

<g transform="translate(0.000000,512.000000) scale(0.100000,-0.100000)"
fill="gray" stroke="none">
<path d="M2371 5110 c-868 -72 -1619 -553 -2046 -1309 -299 -531 -394 -1191
-259 -1801 105 -469 344 -901 688 -1245 138 -138 232 -214 406 -330 653 -435
1492 -540 2240 -280 828 289 1465 1003 1654 1855 81 365 81 755 0 1120 -231
1040 -1114 1845 -2168 1975 -150 19 -388 25 -515 15z m387 -873 c105 -37 176
-82 259 -164 119 -119 183 -275 183 -444 0 -245 -130 -458 -350 -573 -92 -49
-178 -69 -290 -69 -182 0 -320 59 -456 193 -119 118 -184 276 -184 445 0 108
18 184 66 283 85 174 249 304 439 348 92 21 243 12 333 -19z m218 -1700 c291
-48 491 -105 764 -218 l100 -41 0 -609 0 -609 -1280 0 -1280 0 2 612 3 612 60
23 c311 123 653 210 945 242 125 14 576 6 686 -12z"/>
</g>
</svg>
