<?xml version="1.0" encoding="UTF-8"?>
<!DOCTYPE svg PUBLIC "-//W3C//DTD SVG 1.1//EN" "http://www.w3.org/Graphics/SVG/1.1/DTD/svg11.dtd">
<!-- Creator: CorelDRAW -->
<svg xmlns="http://www.w3.org/2000/svg" xml:space="preserve" width="50mm" height="27.48mm" version="1.1" style="shape-rendering:geometricPrecision; text-rendering:geometricPrecision; image-rendering:optimizeQuality; fill-rule:evenodd; clip-rule:evenodd"
viewBox="0 0 5000 2748"
 xmlns:xlink="http://www.w3.org/1999/xlink"
 xmlns:xodm="http://www.corel.com/coreldraw/odm/2003">
 <defs>
  <style type="text/css">
   <![CDATA[
    .str0 {stroke:#DDDDDD;stroke-width:20;stroke-miterlimit:22.9256}
    .fil1 {fill:#96989A}
    .fil0 {fill:#F6F6F6}
   ]]>
  </style>
 </defs>
 <g id="Camada_x0020_1">
  <metadata id="CorelCorpID_0Corel-Layer"/>
  <g id="_1402769482496">
   <path class="fil0 str0" d="M1370.1 5.74l2252.22 0c755.66,0 1373.89,618.26 1373.89,1373.92l0 0.02c0,755.66 -618.23,1373.92 -1373.89,1373.92l-2252.22 0c-755.65,0 -1373.91,-618.26 -1373.91,-1373.92l0 -0.02c0,-755.66 618.26,-1373.92 1373.91,-1373.92z"/>
   <path class="fil1" d="M3151.16 1473.92l97.17 -34.08c237.05,-78.99 490.37,-84.28 721.74,19.45 8.8,3.97 14.6,6.19 23.96,9.69 9.72,3.61 18.64,4.26 18.64,15.03l0 397.09 -861.51 0 0 -407.18zm395.32 -955.75l73.83 0c58.7,2.5 117.39,10.91 174.99,25.54 117.6,29.84 189.67,70.08 284.67,132.63 30.09,19.78 58.8,45.66 84.93,69.87 10.06,9.3 16.52,13.05 27,23.5l49.11 55.19c37.04,45.83 57.44,72.55 86.58,122.07 13.62,23.2 24.34,43.39 36.2,68.11 48.68,101.29 75.6,217.37 79.64,334.7l0 61.57c-2.12,61.54 -10.58,122.78 -25.53,181.74 -19.51,76.74 -52.24,155.67 -91.58,221.39 -13.65,22.77 -26.46,42.44 -41.08,63.25 -41.25,58.64 -106.78,129.51 -162.89,173.63 -49.22,38.67 -120.15,86.18 -176.05,110.03 -51.39,21.95 -94.21,40.08 -153.68,54.95 -91.36,22.85 -136.98,24.69 -223.21,24.85l-17.8 0c-229.01,0 -485.32,-128.91 -628.81,-306.72 -4.85,-5.94 -7.38,-7.76 -12.59,-14.36 -38.64,-49.22 -86.17,-120.15 -110,-176.02 -63.55,-148.77 -79.31,-224.69 -79.8,-386.9l0 -7.79c0,-118.55 41.43,-256.88 80.7,-336.57 36.84,-74.81 53.59,-98.88 100.53,-161.97 8.14,-10.88 14.3,-17.25 22.63,-27.89l117.19 -114.97c36.2,-28.41 67.89,-50.55 107.75,-73.99 119.36,-70.17 256.99,-109.9 397.27,-115.84zm-179.95 504.81c0,-29.25 9.01,-64.09 18.21,-86.13 27.86,-66.64 103.02,-129.26 183.72,-129.26 74.78,0 117.03,14.46 167.45,64.74 28.41,28.35 44.79,61.05 54.81,100.01 18.26,71.12 -7.11,147.1 -54.76,197.98 -129.57,138.41 -369.43,38.36 -369.43,-147.34z"/>
   <path class="fil1" d="M674.47 1715.17c0,48.41 40.43,87.91 90.08,87.91l1045.02 0c112.72,0 133.07,-171.21 -20.57,-171.21l-1003.88 0c-45.61,0 -81.57,14.27 -99.61,46.99 -5.73,10.4 -11.04,21.68 -11.04,36.31z"/>
   <path class="fil1" d="M674.47 1377.35c0,52.02 44.22,87.94 97.81,87.94l1029.58 0c53.54,0 97.8,-35.92 97.8,-87.94 0,-46.21 -45.32,-83.28 -97.8,-83.28l-1029.58 0c-30.49,0 -51.82,10.75 -68.83,23.75 -13.82,10.58 -28.98,37.09 -28.98,59.53z"/>
   <path class="fil1" d="M674.47 1041.86c0,55.14 50.47,85.61 110.65,85.61l1003.88 0c45.61,0 81.57,-14.27 99.61,-46.97 35.22,-63.93 -20.67,-124.25 -79.04,-124.25l-1045.02 0c-49.36,0 -90.08,40.22 -90.08,85.61z"/>
  </g>
 </g>
</svg>
