<?xml version="1.0" standalone="no"?>
<!DOCTYPE svg PUBLIC "-//W3C//DTD SVG 20010904//EN"
 "http://www.w3.org/TR/2001/REC-SVG-20010904/DTD/svg10.dtd">
<svg version="1.0" xmlns="http://www.w3.org/2000/svg"
 width="512.000000pt" height="512.000000pt" viewBox="0 0 512.000000 512.000000"
 preserveAspectRatio="xMidYMid meet">

<g transform="translate(0.000000,512.000000) scale(0.100000,-0.100000)"
fill="red" stroke="none">
<path d="M2370 5114 c-344 -31 -648 -115 -939 -259 -272 -135 -478 -284 -688
-497 -209 -211 -346 -404 -478 -673 -126 -255 -197 -484 -242 -775 -24 -161
-24 -539 0 -700 45 -291 116 -520 241 -775 134 -272 283 -480 498 -692 396
-393 877 -632 1448 -720 174 -26 548 -24 729 5 464 75 885 262 1237 548 120
97 331 315 422 437 265 352 429 746 499 1197 24 161 24 539 0 700 -70 450
-233 843 -499 1198 -89 119 -302 339 -423 437 -350 284 -778 474 -1230 545
-126 20 -464 34 -575 24z m-106 -1862 c126 -128 244 -244 262 -258 l33 -26 30
21 c16 12 173 167 348 346 l319 324 203 -203 202 -203 -266 -252 c-253 -241
-425 -419 -425 -441 0 -20 142 -170 341 -360 112 -107 237 -226 277 -265 l73
-70 -204 -203 -203 -203 -255 267 c-244 256 -418 424 -439 424 -22 0 -202
-173 -442 -426 l-252 -265 -203 203 -204 203 69 65 c273 259 538 519 578 565
41 49 46 58 36 79 -16 35 -211 235 -459 468 l-224 211 203 204 203 203 85 -87
c46 -49 188 -193 314 -321z"/>
</g>
</svg>
