<?xml version="1.0" encoding="UTF-8"?>
<!DOCTYPE svg PUBLIC "-//W3C//DTD SVG 1.1//EN" "http://www.w3.org/Graphics/SVG/1.1/DTD/svg11.dtd">
<!-- Creator: CorelDRAW -->
<svg xmlns="http://www.w3.org/2000/svg" xml:space="preserve" width="108.59mm" height="138.304mm" version="1.1" style="shape-rendering:geometricPrecision; text-rendering:geometricPrecision; image-rendering:optimizeQuality; fill-rule:evenodd; clip-rule:evenodd"
viewBox="0 0 10859 13830.4"
 xmlns:xlink="http://www.w3.org/1999/xlink"
 xmlns:xodm="http://www.corel.com/coreldraw/odm/2003">
 <defs>
  <style type="text/css">
   <![CDATA[
    .fil0 {fill:#6c6c6c}
   ]]>
  </style>
 </defs>
 <g id="Camada_x0020_1">
  <metadata id="CorelCorpID_0Corel-Layer"/>
  <g id="_1560629003696">
   <path class="fil0" d="M970.38 12049.63l0 -4538.09c0,-529.47 175.69,-864.39 756.35,-864.39l7401.4 0c495,0 756.35,261.34 756.35,756.34l0 4754.19c0,435.81 -285.9,702.32 -729.34,702.32l-7482.44 0c-235.09,0 -420.34,-88.92 -533.02,-223.32 -124.54,-148.57 -169.3,-324.79 -169.3,-587.05zm4279.1 -12047.54l403.3 0c429.66,25.59 855.91,133.93 1251.38,333.1 582.57,293.39 918.44,591.91 1302.03,1102.07 319.87,425.42 624.81,1198.72 624.81,1779.31l0 2458.13 432.19 0c855.99,0 1593.74,738.75 1593.74,1593.73l0 4970.29c0,487.44 -219.38,853.59 -461.89,1104.83l-55.52 52.53c-23.55,21.54 -31.8,28.58 -56.2,51.85 -227.13,216.63 -630.65,384.52 -966.1,384.52l-7779.58 0c-821.28,0 -1539.71,-764.57 -1539.71,-1593.73l0 -4970.29c0,-859.16 732.92,-1593.73 1593.74,-1593.73l6266.88 0 0 -2269.04c0,-1989.29 -2258.37,-3089.35 -3808.96,-1999.14 -723.47,508.67 -1057.16,1249.01 -1053.36,2134.12 0.59,137.02 9.01,316.22 -21.28,410.91 -68.46,214 -323.51,370.25 -530.17,331.93 -524.49,-97.25 -420.92,-574.81 -420.92,-1066.91 0,-420.89 186.44,-996.43 333.1,-1287.65 94.91,-188.45 180.87,-344.97 303.41,-506.96 116.63,-154.16 222.67,-294.12 355.96,-427.41 593.61,-593.6 1403.81,-943.24 2233.15,-992.46z"/>
   <path class="fil0" d="M4941.21 9132.29l0 1296.59c0,610.08 972.44,610.08 972.44,0l0 -1296.59c0,-607.83 -972.44,-600.4 -972.44,0z"/>
  </g>
 </g>
</svg>
