<?xml version="1.0" encoding="UTF-8"?>
<!DOCTYPE svg PUBLIC "-//W3C//DTD SVG 1.1//EN" "http://www.w3.org/Graphics/SVG/1.1/DTD/svg11.dtd">
<!-- Creator: CorelDRAW -->
<svg xmlns="http://www.w3.org/2000/svg" xml:space="preserve" width="180.28mm" height="180.28mm" version="1.1" style="shape-rendering:geometricPrecision; text-rendering:geometricPrecision; image-rendering:optimizeQuality; fill-rule:evenodd; clip-rule:evenodd"
viewBox="0 0 18028 18028"
 xmlns:xlink="http://www.w3.org/1999/xlink"
 xmlns:xodm="http://www.corel.com/coreldraw/odm/2003">
 <defs>
  <style type="text/css">
   <![CDATA[
    .fil0 {fill:#96989A}
   ]]>
  </style>
 </defs>
 <g id="Camada_x0020_1">
  <metadata id="CorelCorpID_0Corel-Layer"/>
  <path class="fil0" d="M9011 3c4978.3,0 9014,4035.71 9014,9014 0,4978.29 -4035.7,9014 -9014,9014 -4978.3,0 -9014,-4035.71 -9014,-9014 0,-4978.29 4035.7,-9014 9014,-9014zm-6541.54 4501.74c0,1013.38 1295.62,476.92 2042.3,636.79 273.33,58.5 362.75,198.4 438.01,455.02 268.75,916.32 531.97,1798.59 803.84,2714.16 141.35,476.04 890.89,3108.23 1018.16,3365.82 317.48,642.49 857.36,973.74 1678.3,973.74l4898.14 0c320.45,0 626.05,-55.91 839.4,-161.88 724.4,-359.8 829.62,-765.79 1058.1,-1485.67 39.04,-123.03 92.28,-264.26 126.39,-387.79 155.54,-563.18 438.88,-1348.53 610.84,-1932.96 44.04,-149.71 78.86,-263.13 122.19,-391.97 129.68,-385.39 219.85,-596.42 219.85,-970.86 0,-372.93 -262.59,-699.76 -498.62,-854.46 -335.18,-219.7 -650.04,-200.94 -1179.2,-200.94 -2760.28,0 -5520.56,0 -8280.84,0l-240.17 -815.23c-103.92,-325.19 -126.72,-486.57 -305.9,-749.5 -264.64,-388.34 -758.1,-735.5 -1402.36,-735.5l-1380.14 0c-289.92,0 -568.29,248.49 -568.29,541.23zm9227.99 9850.42c0,354.05 152.06,635.43 340.68,822.97 200.55,199.37 460.04,313.32 720.9,340.66l245.06 0c130.2,-13.9 256.07,-50.3 370.04,-109.38l296.2 -217.98c4.01,-3.86 9.82,-9.38 13.75,-13.3 556.48,-553.24 420.81,-1514.17 -344.48,-1869.77 -601.02,-279.28 -1284.54,20.45 -1534.32,559.26 -56.32,121.49 -107.83,308.15 -107.83,487.54zm-4032.17 -81.21c0,370.49 60.03,644.09 330.4,914.45 197.4,197.4 431.63,302.13 668.7,330.39l268.6 0c623.52,-73.12 1176.01,-645.93 1017.11,-1418.83 -132.1,-642.6 -901.56,-1104.75 -1564.21,-810.28 -204.07,90.69 -341.36,181.98 -481.73,357.18 -104.21,130.05 -238.87,399.65 -238.87,627.09z"/>
 </g>
</svg>
