<?xml version="1.0" encoding="UTF-8"?>
<!DOCTYPE svg PUBLIC "-//W3C//DTD SVG 1.1//EN" "http://www.w3.org/Graphics/SVG/1.1/DTD/svg11.dtd">
<!-- Creator: CorelDRAW -->
<svg xmlns="http://www.w3.org/2000/svg" xml:space="preserve" width="180.28mm" height="180.28mm" version="1.1" style="shape-rendering:geometricPrecision; text-rendering:geometricPrecision; image-rendering:optimizeQuality; fill-rule:evenodd; clip-rule:evenodd"
viewBox="0 0 18028 18028"
 xmlns:xlink="http://www.w3.org/1999/xlink"
 xmlns:xodm="http://www.corel.com/coreldraw/odm/2003">
 <defs>
  <style type="text/css">
   <![CDATA[
    .str0 {stroke:#DDDDDD;stroke-width:20;stroke-miterlimit:22.9256}
    .fil1 {fill:#96989A}
    .fil0 {fill:#F6F6F6}
   ]]>
  </style>
 </defs>
 <g id="Camada_x0020_1">
  <metadata id="CorelCorpID_0Corel-Layer"/>
  <path class="fil0 str0" d="M9011 3c4978.3,0 9014,4035.71 9014,9014 0,4978.29 -4035.7,9014 -9014,9014 -4978.3,0 -9014,-4035.71 -9014,-9014 0,-4978.29 4035.7,-9014 9014,-9014z"/>
  <g id="_2875138567936">
   <path class="fil1" d="M13343.18 6805.32c-2368.7,0 -4737.4,0 -7106.09,0l-206.1 -699.58c-89.18,-279.05 -108.75,-417.54 -262.51,-643.17 -227.09,-333.25 -650.55,-631.16 -1203.41,-631.16l-1184.35 0c-248.79,0 -487.67,213.24 -487.67,464.45 0,869.62 1111.82,409.26 1752.57,546.45 234.55,50.2 311.29,170.26 375.87,390.47 230.63,786.33 456.5,1543.44 689.81,2329.12 121.29,408.51 764.5,2667.29 873.72,2888.34 272.44,551.34 735.73,835.6 1440.21,835.6l4203.27 0c274.99,0 537.24,-47.98 720.32,-138.92 621.64,-308.76 711.93,-657.15 908,-1274.91 33.5,-105.57 79.18,-226.77 108.46,-332.77 133.47,-483.29 376.61,-1157.23 524.18,-1658.75 37.79,-128.47 67.67,-225.8 104.86,-336.36 111.28,-330.72 188.66,-511.81 188.66,-833.13 0,-320.03 -225.34,-600.49 -427.89,-733.24 -287.63,-188.54 -557.82,-172.44 -1011.91,-172.44z"/>
   <path class="fil1" d="M12221.11 12850.57c-515.75,-239.66 -1102.31,17.55 -1316.65,479.92 -48.33,104.26 -92.54,264.44 -92.54,418.38 0,303.82 130.49,545.28 292.35,706.22 172.1,171.08 394.78,268.87 618.63,292.33l210.3 0c111.73,-11.93 219.74,-43.16 317.54,-93.86l254.18 -187.06c3.45,-3.31 8.43,-8.05 11.8,-11.41 477.54,-474.76 361.12,-1299.37 -295.61,-1604.52z"/>
   <path class="fil1" d="M8439.63 14747.42c535.07,-62.75 1009.18,-554.3 872.82,-1217.55 -113.36,-551.44 -773.66,-948.03 -1342.31,-695.33 -175.12,77.82 -292.93,156.16 -413.39,306.51 -89.42,111.6 -204.98,342.95 -204.98,538.13 0,317.93 51.51,552.71 283.53,784.72 169.4,169.4 370.4,259.27 573.84,283.52l230.49 0z"/>
  </g>
 </g>
</svg>
