<?xml version="1.0" standalone="no"?>
<!DOCTYPE svg PUBLIC "-//W3C//DTD SVG 20010904//EN"
 "http://www.w3.org/TR/2001/REC-SVG-20010904/DTD/svg10.dtd">
<svg version="1.0" xmlns="http://www.w3.org/2000/svg"
 width="512.000000pt" height="512.000000pt" viewBox="0 0 512.000000 512.000000"
 preserveAspectRatio="xMidYMid meet">

<g transform="translate(0.000000,512.000000) scale(0.100000,-0.100000)"
fill="gray" stroke="none">
<path d="M330 4992 c-19 -9 -45 -32 -57 -51 l-23 -34 2 -1183 3 -1184 38 -37
37 -38 560 -3 c308 -1 560 1 560 5 2 51 24 163 40 209 11 32 20 60 20 61 0 2
-220 3 -490 3 l-490 0 0 995 0 995 2005 0 2005 0 0 -926 0 -926 34 -47 c72
-99 116 -220 116 -321 0 -49 1 -51 23 -44 38 12 74 42 88 76 12 27 14 229 14
1198 0 1147 0 1166 -20 1199 -11 18 -36 42 -55 52 -34 18 -107 19 -2205 19
-2046 0 -2172 -1 -2205 -18z"/>
<path d="M1995 2889 c-103 -15 -183 -57 -252 -132 -192 -208 -125 -537 135
-660 62 -30 75 -32 172 -32 97 0 110 2 172 32 134 63 218 176 241 322 41 268
-198 509 -468 470z"/>
<path d="M4039 2889 c-199 -22 -359 -206 -359 -414 0 -316 332 -512 618 -366
62 32 141 117 174 188 141 300 -99 629 -433 592z"/>
<path d="M2590 2737 c0 -1 9 -28 20 -60 17 -48 39 -162 40 -204 0 -10 91 -13
424 -13 l423 0 7 72 c3 39 17 102 30 140 l24 68 -484 0 c-266 0 -484 -1 -484
-3z"/>
<path d="M921 2014 c-123 -33 -218 -113 -274 -232 -30 -62 -32 -75 -32 -172 0
-99 2 -109 34 -174 60 -124 164 -206 296 -233 336 -68 605 278 457 590 -84
178 -289 273 -481 221z"/>
<path d="M2964 2015 c-178 -48 -305 -212 -306 -395 -1 -129 42 -230 133 -315
230 -215 605 -103 689 207 7 29 11 79 8 126 -15 261 -271 445 -524 377z"/>
<path d="M1565 1868 c75 -163 74 -362 -2 -512 -14 -28 -34 -63 -44 -78 -11
-14 -19 -30 -19 -36 0 -5 48 -12 108 -15 155 -8 271 -54 390 -154 l52 -45 50
45 c63 56 189 122 271 142 35 8 101 15 147 15 89 0 94 4 63 48 -115 165 -134
397 -46 590 l24 52 -509 0 -509 0 24 -52z"/>
<path d="M3590 1916 c0 -2 11 -28 25 -57 84 -185 66 -413 -46 -576 -16 -23
-29 -44 -29 -46 0 -2 51 -7 113 -9 88 -5 127 -11 181 -32 96 -37 172 -85 243
-156 l61 -60 246 0 246 0 2 248 3 247 35 0 35 0 3 -247 2 -248 206 0 206 0 -4
278 c-4 249 -7 283 -26 334 -43 118 -132 222 -234 274 -104 53 -119 54 -715
54 -304 0 -553 -2 -553 -4z"/>
<path d="M400 1049 c-143 -24 -283 -130 -346 -263 -45 -95 -54 -166 -54 -444
l0 -232 202 2 203 3 5 244 c5 222 7 245 23 255 15 9 22 7 38 -13 18 -21 19
-41 19 -257 l0 -234 535 0 535 0 2 246 c3 222 5 248 21 258 12 8 22 8 35 0 15
-10 18 -37 23 -250 4 -131 7 -242 8 -246 0 -5 181 -8 401 -8 l400 0 0 228 c0
125 3 237 6 249 7 27 40 39 59 23 12 -10 15 -55 15 -256 l0 -244 535 0 535 0
0 240 c0 227 1 241 20 260 24 24 34 25 54 4 14 -13 16 -51 16 -260 l0 -244
207 0 206 0 -7 275 c-6 231 -10 286 -26 338 -51 165 -207 299 -380 326 -90 15
-1167 15 -1245 0 -190 -35 -344 -185 -387 -378 -10 -47 -13 -51 -16 -26 -21
195 -198 372 -402 405 -80 12 -1162 12 -1240 -1z"/>
</g>
</svg>
