<?xml version="1.0" standalone="no"?>
<!DOCTYPE svg PUBLIC "-//W3C//DTD SVG 20010904//EN"
 "http://www.w3.org/TR/2001/REC-SVG-20010904/DTD/svg10.dtd">
<svg version="1.0" xmlns="http://www.w3.org/2000/svg"
 width="512.000000pt" height="512.000000pt" viewBox="0 0 512.000000 512.000000"
 preserveAspectRatio="xMidYMid meet">

<g transform="translate(0.000000,512.000000) scale(0.100000,-0.100000)"
fill="gray" stroke="none">
<path d="M1218 5021 c-283 -91 -398 -427 -231 -678 90 -137 268 -213 428 -186
151 26 268 113 332 248 139 293 -77 637 -399 634 -42 0 -98 -8 -130 -18z"/>
<path d="M3608 5021 c-81 -26 -135 -61 -195 -123 -58 -63 -87 -114 -108 -195
-27 -103 -14 -218 36 -316 32 -61 135 -159 201 -190 343 -162 718 143 623 508
-65 247 -319 392 -557 316z"/>
<path d="M3287 4090 c-157 -27 -293 -168 -313 -326 l-6 -54 -158 0 c-144 0
-160 -2 -184 -21 -17 -14 -26 -30 -26 -49 0 -16 25 -219 55 -452 30 -232 55
-433 55 -445 0 -23 0 -23 -170 -23 -155 0 -170 2 -170 18 0 9 25 206 55 437
30 230 55 434 55 452 0 20 -8 41 -20 53 -18 18 -33 20 -185 20 l-165 0 0 29
c0 50 -39 154 -76 204 -39 54 -102 102 -172 132 -44 19 -73 20 -485 23 -371 3
-447 1 -500 -13 -123 -31 -229 -132 -267 -254 -19 -59 -20 -93 -20 -582 l0
-519 -209 0 c-215 0 -263 -7 -281 -40 -12 -22 -14 -489 -2 -506 17 -26 56 -34
156 -34 l106 0 0 -1010 c0 -997 0 -1010 20 -1030 20 -20 33 -20 2174 -20 2106
0 2154 0 2177 19 l24 19 3 1010 2 1010 115 4 c93 2 118 6 132 21 16 16 18 43
21 260 3 235 2 244 -18 270 l-21 27 -249 0 -249 0 -3 548 -3 547 -28 56 c-59
120 -161 198 -287 218 -76 13 -810 13 -883 1z m-977 -546 c0 -11 -90 -750 -96
-786 l-6 -38 -590 0 -590 0 6 28 c3 15 26 187 51 382 25 195 48 370 51 388 l6
32 584 0 c321 0 584 -2 584 -6z m1635 -26 c3 -18 25 -188 50 -378 25 -190 47
-362 51 -382 l6 -38 -586 0 -585 0 -6 33 c-6 36 -95 770 -95 786 0 8 180 11
580 11 l579 0 6 -32z m655 -2333 l0 -955 -2045 0 -2045 0 0 955 0 955 2045 0
2045 0 0 -955z"/>
<path d="M1471 3184 c-12 -15 -21 -37 -21 -49 0 -12 9 -34 21 -49 l20 -26 184
0 c177 0 185 1 205 22 27 30 26 79 -3 106 -22 21 -32 22 -204 22 l-182 0 -20
-26z"/>
<path d="M3201 3184 c-12 -15 -21 -37 -21 -49 0 -12 9 -34 21 -49 l20 -26 184
0 c177 0 185 1 205 22 26 28 26 68 -1 102 l-20 26 -184 0 -184 0 -20 -26z"/>
<path d="M783 1898 c-13 -6 -27 -26 -33 -47 -14 -52 -13 -1288 1 -1330 6 -17
19 -36 29 -41 25 -14 3535 -14 3560 0 10 5 23 24 29 41 14 42 15 1278 1 1330
-6 23 -19 40 -36 47 -35 16 -3518 16 -3551 0z"/>
</g>
</svg>
