<?xml version="1.0" encoding="UTF-8"?>
<!DOCTYPE svg PUBLIC "-//W3C//DTD SVG 1.1//EN" "http://www.w3.org/Graphics/SVG/1.1/DTD/svg11.dtd">
<!-- Creator: CorelDRAW -->
<svg xmlns="http://www.w3.org/2000/svg" xml:space="preserve" width="180.28mm" height="180.28mm" version="1.1" style="shape-rendering:geometricPrecision; text-rendering:geometricPrecision; image-rendering:optimizeQuality; fill-rule:evenodd; clip-rule:evenodd"
viewBox="0 0 18028 18028"
 xmlns:xlink="http://www.w3.org/1999/xlink"
 xmlns:xodm="http://www.corel.com/coreldraw/odm/2003">
 <defs>
  <style type="text/css">
   <![CDATA[
    .fil0 {fill:#96989A}
   ]]>
  </style>
 </defs>
 <g id="Camada_x0020_1">
  <metadata id="CorelCorpID_0Corel-Layer"/>
  <path class="fil0" d="M8407.82 8303.4l0 -3981.18c0,-957.5 1201.55,-926.75 1201.55,0l0 3981.18c0,939.13 -1201.55,939.13 -1201.55,0zm-3604.63 525.82c0,1306.65 331.96,2266.3 1229.7,3164.28 371.99,372.09 663.71,579.2 1160.57,829.72 1963.3,989.89 4588.4,160.51 5620.54,-1990.39 695.09,-1448.5 486.77,-3105.07 -474.23,-4396.73 -139.8,-187.91 -232.06,-271.91 -393.01,-433.17 -116.87,-117.06 -338.27,-287.83 -409.03,-417.23 -234.75,-429.25 122.07,-935.01 573.18,-875.17 498.86,66.19 1391.52,1242.53 1604.33,1664.28 204.61,405.5 348.69,690.49 483.37,1169.06 245.15,871.08 288.82,1748.06 74.64,2645.34 -248.18,1039.75 -798.67,2104.12 -1611.37,2782.51 -239.02,199.51 -130.41,155.49 -552.55,461.39 -555.34,402.42 -1192.62,666.41 -1868.81,834.89l-1194.44 159.91 -633.02 -45.3c-143.99,-14.24 -442.63,-68.23 -576.76,-99.14 -1028.2,-236.93 -2113.33,-811.49 -2781.37,-1612.22 -199.46,-239.08 -155.44,-130.44 -461.26,-552.69 -202.37,-279.42 -331.42,-541.09 -491.87,-860.1 -529.4,-1052.57 -628.11,-2532.44 -297.25,-3691.07 134.48,-470.9 295.91,-793.27 497.4,-1192.58 159.8,-316.68 658.94,-965.91 903.96,-1199.08 92.42,-87.95 135.36,-102.46 226.12,-186.95 299.98,-279.14 682.69,-516.15 1034.93,-152.42 570.23,588.81 -361.67,1031.57 -725.81,1513.25 -505.25,668.37 -937.96,1471.93 -937.96,2479.61zm-4806.19 -112.69l0 676.05c0,1868.85 1048.8,4426.21 2374.61,5737.36 103.38,102.25 178.96,178.36 281.93,281.36 1540.12,1540.54 3818,2619.7 6054.67,2619.7 1570.91,0 2863.81,-210.51 4118.25,-838.35 1758.92,-880.32 2956.02,-1934.15 3980.35,-3642.92 144.77,-241.51 246.34,-456.14 375.25,-713.85 1160.77,-2320.51 1086.54,-5293.17 -0.27,-7637.49 -122.28,-263.78 -241.3,-464.49 -375.89,-713.21 -70.6,-130.47 -124.73,-196.68 -200.57,-325.19 -297.9,-504.84 -816.09,-1111.59 -1222.9,-1518.52 -364.34,-364.43 -491.74,-460.09 -859.38,-755.4 -117.72,-94.57 -198.32,-148.3 -322.21,-241.08 -1269.46,-950.55 -3252.53,-1641.99 -4891.86,-1641.99 -1577.78,0 -2857.98,207.6 -4118.25,838.35 -257.63,128.95 -472.21,230.55 -713.65,375.36 -243.13,145.82 -434.38,263.75 -665.49,423.51 -985.14,681.02 -2013.3,1788.76 -2601.47,2843.79 -138.5,248.42 -244.6,453.45 -374.99,714.11 -415.08,829.79 -838.13,2291.5 -838.13,3518.41z"/>
 </g>
</svg>
