<?xml version="1.0" standalone="no"?>
<!DOCTYPE svg PUBLIC "-//W3C//DTD SVG 20010904//EN"
 "http://www.w3.org/TR/2001/REC-SVG-20010904/DTD/svg10.dtd">
<svg version="1.0" xmlns="http://www.w3.org/2000/svg"
 width="512.000000pt" height="512.000000pt" viewBox="0 0 512.000000 512.000000"
 preserveAspectRatio="xMidYMid meet">

<g transform="translate(0.000000,512.000000) scale(0.100000,-0.100000)"
fill="gray" stroke="none">
<path d="M1230 4712 c-275 -73 -406 -392 -264 -647 109 -193 363 -273 566
-178 279 132 344 496 128 713 -113 112 -271 153 -430 112z"/>
<path d="M114 3719 c-18 -5 -45 -22 -62 -37 -64 -59 -67 -11 66 -1061 129
-1012 125 -990 185 -1035 27 -20 43 -21 350 -26 l322 -5 3 -327 2 -327 -197
-161 c-111 -90 -206 -175 -216 -193 -27 -50 -9 -110 44 -141 32 -19 72 -21
101 -5 11 6 75 56 142 111 l121 99 5 -80 c4 -66 9 -84 29 -105 46 -49 131 -43
167 12 11 16 19 54 22 98 l5 72 115 -95 c64 -52 131 -102 149 -111 87 -42 179
49 143 142 -5 14 -96 95 -209 188 l-201 163 0 333 0 332 286 0 c272 0 288 1
320 21 38 23 74 69 74 94 0 11 7 15 22 13 22 -3 24 -16 94 -561 50 -392 77
-570 90 -598 22 -51 91 -112 142 -127 158 -47 312 64 312 226 0 85 -159 1301
-176 1341 -19 47 -76 105 -122 125 -21 8 -127 38 -237 66 -110 28 -223 58
-252 66 l-52 14 6 84 6 84 -52 11 c-106 23 -121 37 -411 406 -117 149 -220
279 -229 290 -15 19 -15 19 6 5 13 -8 156 -114 319 -234 163 -121 314 -225
337 -233 25 -9 57 -12 79 -9 58 9 809 284 850 312 40 26 72 78 83 135 17 90
-48 188 -142 215 -31 9 -68 14 -83 11 -15 -3 -177 -60 -361 -127 l-333 -120
-46 32 c-126 90 -483 360 -470 355 8 -3 127 -49 263 -102 136 -54 250 -95 254
-91 12 12 -19 152 -42 192 -13 23 -41 56 -62 74 -71 63 -103 71 -377 91 -308
23 -359 23 -423 4 -64 -19 -139 -85 -173 -151 l-25 -49 2 -773 3 -773 -72 3
-72 3 -107 842 c-58 463 -109 856 -113 873 -17 88 -115 146 -202 119z"/>
<path d="M3754 3503 c-20 -17 -97 -147 -199 -335 l-167 -308 -314 0 c-221 0
-321 -3 -339 -12 -82 -37 -67 -172 22 -198 26 -8 152 -10 390 -8 l351 3 26 24
c42 39 398 699 404 747 6 58 -34 104 -98 111 -39 4 -49 1 -76 -24z"/>
<path d="M2640 2509 c-110 -44 -137 -194 -48 -276 27 -25 69 -43 103 -43 l25
0 2 -862 c3 -812 4 -865 21 -889 53 -79 170 -54 197 42 6 21 10 357 10 871 l0
838 885 0 885 0 0 -850 c0 -942 -3 -905 63 -936 48 -23 98 -12 131 27 l26 31
0 862 0 863 38 7 c80 13 141 82 142 161 0 50 -40 117 -85 142 l-40 23 -1165
-1 c-750 0 -1174 -4 -1190 -10z"/>
</g>
</svg>
