<?xml version="1.0" encoding="UTF-8"?>
<!DOCTYPE svg PUBLIC "-//W3C//DTD SVG 1.1//EN" "http://www.w3.org/Graphics/SVG/1.1/DTD/svg11.dtd">
<!-- Creator: CorelDRAW -->
<svg xmlns="http://www.w3.org/2000/svg" xml:space="preserve" width="167.794mm" height="162.77mm" version="1.1" style="shape-rendering:geometricPrecision; text-rendering:geometricPrecision; image-rendering:optimizeQuality; fill-rule:evenodd; clip-rule:evenodd"
viewBox="0 0 16779.4 16277"
 xmlns:xlink="http://www.w3.org/1999/xlink"
 xmlns:xodm="http://www.corel.com/coreldraw/odm/2003">
 <defs>
  <style type="text/css">
   <![CDATA[
    .fil0 {fill:gray}
    .fil1 {fill:gray;fill-rule:nonzero}
   ]]>
  </style>
 </defs>
 <g id="Camada_x0020_1">
  <metadata id="CorelCorpID_0Corel-Layer"/>
  <g id="_2839115095936">
   <path class="fil0" d="M2383.19 6784.32l-1261.62 -2186.04c-109.25,-189.81 -43.71,-431.48 146.1,-540.73 62.8,-35.5 129.74,-53.26 197.96,-53.26l0 -1.34 2528.75 0 0 -2539.69c0,-219.84 178.87,-398.71 398.71,-398.71 83.29,0 159.77,25.96 223.92,68.28l2160.08 1256.19 1268.47 -2184.64c110.6,-189.81 353.66,-253.96 542.07,-144.75 62.81,36.84 111.99,87.37 146.1,147.49l1267.09 2181.9 2184.64 -1271.21c189.81,-110.59 432.82,-45.05 542.07,144.75 36.85,62.81 53.26,131.08 53.26,199.36l1.34 2539.69 2539.69 -0.05c219.84,0 398.71,178.87 398.71,398.71 0,83.29 -25.96,159.77 -68.28,223.92l-1256.19 2160.08 2184.64 1268.48c189.81,110.59 253.95,353.66 144.75,542.07 -36.84,62.81 -87.37,111.99 -147.49,146.1l-2181.9 1267.08 542.07 931.25c-166.59,2.73 -333.17,17.75 -499.76,47.78 -187.07,32.77 -361.81,83.3 -527.05,150.18 -49.18,20.48 -98.31,42.31 -144.75,65.54 -165.19,-111.99 -368.68,-177.53 -588.52,-177.53l-1537.35 0.05 0 4.08c-96.96,0 -191.14,12.28 -281.25,38.24 -92.84,-27.3 -192.54,-40.97 -294.93,-40.97l-1525.22 0.05c-221.18,0 -424.66,66.88 -589.85,178.86 -60.07,-30.03 -121.54,-55.99 -184.34,-80.55 -159.77,-61.47 -329.04,-107.86 -507.96,-137.9 -178.87,-30.03 -355,-46.44 -525.66,-46.44 -181.6,0 -361.81,16.41 -543.41,47.79 -187.07,32.77 -361.81,83.29 -527.06,150.17 -172.05,71.01 -331.77,159.77 -477.87,267.63l-1.34 1.34c-23.22,-17.75 -46.45,-34.11 -71.01,-50.52 -188.41,-120.14 -394.58,-203.43 -619.89,-248.48 -142.02,-28.7 -338.64,-50.53 -587.13,-62.81 -234.85,-12.28 -486.07,-19.09 -755.04,-19.09l-834.32 0c-200.7,0 -386.43,54.6 -543.41,148.83 -40.98,-13.68 -83.3,-25.96 -125.61,-38.24 -144.76,-39.58 -309.95,-68.28 -495.63,-86.03 -117.4,-10.94 -236.2,-19.09 -355,-21.83l588.52 -1019.95 -2186.14 -1269.87c-189.8,-110.59 -253.95,-353.66 -144.75,-542.07 36.84,-62.81 87.37,-111.99 147.49,-146.1l2183.3 -1267.09zm3937.85 -2145.12c442.42,0 798.76,125.61 1069.13,378.22 268.97,252.62 402.78,588.53 402.78,1006.33 0,419.2 -133.81,755.05 -402.78,1007.66 -270.37,252.62 -626.71,378.23 -1069.13,378.23 -442.42,0 -797.41,-127.01 -1067.73,-378.23 -268.97,-252.61 -404.18,-588.51 -404.18,-1007.66 0,-417.8 135.16,-755.05 404.18,-1006.33 270.32,-252.56 625.37,-378.22 1067.73,-378.22zm4134.48 3469.54c-95.58,0 -170.66,28.7 -221.19,81.95 -50.52,57.34 -76.48,133.82 -76.48,234.86 0,101.05 25.96,178.87 76.48,234.86 50.53,56 124.27,81.95 221.19,81.95 95.57,0 169.32,-28.69 219.84,-81.95 50.52,-55.99 76.48,-133.81 76.48,-234.86 0,-102.38 -25.96,-180.26 -76.48,-234.86 -49.18,-54.65 -124.27,-81.95 -219.84,-81.95zm-4134.48 -2400.4c-95.57,0 -169.32,28.69 -219.84,83.29 -50.52,55.99 -76.48,133.81 -76.48,233.47 0,101.04 25.96,180.26 76.48,236.2 50.52,54.6 122.88,83.29 219.84,83.29 95.58,0 170.66,-28.69 221.19,-83.29 50.52,-57.34 75.08,-133.82 75.08,-236.2 0,-101.05 -24.56,-178.87 -75.08,-233.47 -49.13,-54.6 -124.22,-83.29 -221.19,-83.29zm4134.48 1331.28c442.42,0 797.42,127 1067.73,378.22 268.97,252.61 404.18,588.52 404.18,1007.66 0,417.81 -135.16,755.05 -404.18,1006.32 -270.37,252.61 -625.36,378.22 -1067.73,378.22 -442.42,0 -798.76,-125.61 -1069.13,-378.22 -268.97,-252.61 -402.78,-588.51 -402.78,-1006.32 0,-419.19 133.81,-755.05 402.78,-1007.66 270.37,-251.22 626.71,-378.22 1069.13,-378.22zm-903.88 -2202.4l1198.81 0 -3509.12 4772.13 -1198.81 0 3509.12 -4772.13z"/>
   <path class="fil1" d="M433.41 11955.11l1189.26 0c320.88,0 568.03,23.22 741.42,71.01 172.06,47.79 301.74,114.72 389.16,203.43 87.37,88.76 144.76,196.62 177.53,323.62 30.03,127.01 46.45,322.23 46.45,587.13l0 368.67c0,268.97 -30.04,466.99 -90.11,589.86 -58.73,124.27 -169.32,219.84 -327.7,285.38 -159.77,65.54 -368.67,99.66 -625.36,99.66l-316.86 0 0 1708.11 -1183.79 0 0 -4236.87 0 0zm1181.05 723.67l0 1078.68c34.11,1.34 62.81,2.73 86.03,2.73 107.86,0 182.94,-24.56 225.31,-75.09 40.98,-49.18 62.81,-152.91 62.81,-309.94l0 -349.53c0,-144.76 -24.57,-238.94 -72.35,-282.65 -49.19,-43.71 -148.84,-64.2 -301.8,-64.2l0 0zm1698.57 -723.67l834.26 0c557.09,0 933.97,19.09 1130.59,60.07 196.62,39.58 357.73,143.36 482,307.21 124.27,163.85 187.07,427.35 187.07,787.82 0,329.04 -43.71,550.28 -132.42,663.61 -87.37,113.32 -260.82,181.6 -518.85,203.43 233.47,54.6 390.5,127 471.06,218.45 80.56,90.1 129.74,173.39 148.83,249.87 20.49,75.09 30.04,283.99 30.04,626.71l0 1118.25 -1096.48 0.11 0 -1409.11c0,-226.65 -19.09,-367.28 -57.33,-420.54 -36.85,-54.6 -136.55,-80.56 -299.01,-80.56l0 1911.6 -1182.5 -0.05 0 -4236.87 2.74 0zm1182.45 723.67l0 942.13c132.42,0 223.92,-16.41 275.83,-50.53 53.26,-34.11 79.22,-144.75 79.22,-331.77l0 -233.47c0,-135.16 -25.96,-222.58 -76.48,-264.89 -49.18,-40.98 -143.37,-61.47 -278.57,-61.47l0 0zm4600.06 1760.03c0,426.01 -10.94,726.41 -32.77,903.89 -20.49,177.52 -87.37,338.64 -200.69,486.07 -113.33,146.1 -266.24,259.43 -458.78,337.25 -192.54,79.22 -416.46,117.41 -671.81,117.41 -243.07,0 -460.12,-36.85 -652.66,-111.99 -192.55,-73.75 -349.53,-184.34 -465.59,-333.17 -117.41,-147.49 -187.08,-309.95 -210.3,-483.34 -21.83,-174.79 -34.11,-480.61 -34.11,-916.22l0 -725.02c0,-426.01 10.94,-726.4 32.77,-902.54 20.49,-177.52 87.37,-338.64 200.7,-486.08 113.32,-146.09 266.23,-259.42 457.43,-337.24 192.55,-79.22 416.46,-117.41 671.81,-117.41 243.07,0 460.12,36.85 652.66,111.99 193.89,73.74 349.53,184.34 465.59,333.17 117.41,147.49 187.08,309.95 210.3,483.34 21.83,174.79 34.11,480.61 34.11,916.22l0 723.67 1.34 0zm-1182.4 -1391.35c0,-196.62 -10.94,-322.23 -34.11,-378.22 -23.22,-54.6 -69.62,-81.95 -140.63,-81.95 -60.06,0 -106.51,21.82 -139.28,66.88 -31.43,43.71 -47.79,174.79 -47.79,393.24l0 1977.13c0,245.8 10.94,397.32 31.43,454.71 20.49,57.33 69.62,86.02 146.1,86.02 77.82,0 129.74,-32.77 151.56,-99.65 21.83,-65.54 32.77,-223.92 32.77,-472.45l-0.05 -1945.71 0 0zm5263.62 -1092.35l0 4235.53 -1032.23 0 -2.73 -2859.19 -409.65 2859.19 -722.28 0 -432.82 -2795 -2.73 2795 -1032.28 0 0 -4235.53 1525.17 0c43.71,256.69 90.1,558.43 140.62,902.54l167.93 1075.94 268.97 -1978.48 1532.03 0 0 0zm3166.4 2483.7c0,426.01 -10.94,726.41 -32.77,903.89 -20.49,177.52 -87.37,338.64 -200.7,486.07 -113.33,147.44 -266.24,259.43 -458.78,337.25 -192.54,77.82 -416.46,117.41 -671.81,117.41 -243.06,0 -460.12,-36.85 -652.66,-111.99 -193.88,-73.75 -349.53,-184.34 -465.59,-333.17 -117.4,-147.49 -187.07,-309.95 -210.29,-483.34 -21.83,-174.79 -34.12,-480.61 -34.12,-916.22l0 -725.02c0,-426.01 10.94,-726.4 32.77,-902.54 20.49,-177.52 87.37,-338.64 200.7,-486.08 113.33,-146.09 266.24,-259.42 457.44,-337.24 192.54,-79.22 416.46,-117.41 671.8,-117.41 243.07,0 460.13,36.85 652.67,111.99 193.88,73.74 349.53,184.34 465.59,333.17 117.4,147.49 187.07,309.95 210.29,483.34 21.83,174.79 34.11,480.61 34.11,916.22l0 723.67 1.35 0zm-1182.45 -1391.35c0,-196.62 -10.95,-322.23 -34.12,-378.22 -23.22,-54.6 -69.61,-81.95 -140.62,-81.95 -60.07,0 -106.52,21.82 -139.29,66.88 -31.43,43.71 -47.79,174.79 -47.79,393.24l0 1977.13c0,245.8 10.95,397.32 31.43,454.71 20.49,57.33 69.62,86.02 146.1,86.02 77.82,0 129.74,-32.77 151.57,-99.65 21.83,-65.54 32.77,-223.92 32.77,-472.45l-0.05 -1945.71 0 0z"/>
  </g>
 </g>
</svg>
