<?xml version="1.0" encoding="UTF-8"?>
<!DOCTYPE svg PUBLIC "-//W3C//DTD SVG 1.1//EN" "http://www.w3.org/Graphics/SVG/1.1/DTD/svg11.dtd">
<!-- Creator: CorelDRAW -->
<svg xmlns="http://www.w3.org/2000/svg" xml:space="preserve" width="180.28mm" height="180.28mm" version="1.1" style="shape-rendering:geometricPrecision; text-rendering:geometricPrecision; image-rendering:optimizeQuality; fill-rule:evenodd; clip-rule:evenodd"
viewBox="0 0 18028 18028"
 xmlns:xlink="http://www.w3.org/1999/xlink"
 xmlns:xodm="http://www.corel.com/coreldraw/odm/2003">
 <defs>
  <style type="text/css">
   <![CDATA[
    .fil1 {fill:#96989A}
    .fil0 {fill:#96989A;fill-rule:nonzero}
   ]]>
  </style>
 </defs>
 <g id="Camada_x0020_1">
  <metadata id="CorelCorpID_0Corel-Layer"/>
  <path class="fil0" d="M8338.78 17.39c-3062.97,254 -5713.08,1950.86 -7219.87,4617.86 -1055.1,1873.25 -1390.33,4201.58 -913.95,6353.53 370.53,1654.53 1213.91,3178.53 2427.8,4392.08 486.97,486.83 818.67,754.94 1432.68,1164.17 2304.3,1534.58 5264.93,1905 7904.46,987.78 2921.82,-1019.53 5169.65,-3538.36 5836.58,-6544.03 285.84,-1287.64 285.84,-2663.47 0,-3951.11 -815.15,-3668.89 -3931.05,-6508.75 -7650.38,-6967.36 -529.31,-67.03 -1369.16,-88.19 -1817.32,-52.92zm1365.64 3079.75c370.52,130.53 621.06,289.28 913.94,578.56 419.93,419.81 645.77,970.14 645.77,1566.33 0,864.31 -458.74,1615.72 -1235.07,2021.42 -324.65,172.86 -628.12,243.42 -1023.35,243.42 -642.24,0 -1129.21,-208.14 -1609.12,-680.86 -419.93,-416.28 -649.3,-973.67 -649.3,-1569.86 0,-381 63.52,-649.11 232.9,-998.36 299.94,-613.83 878.67,-1072.44 1549.13,-1227.67 324.65,-74.08 857.49,-42.33 1175.08,67.03l0.02 -0.01zm1349.55 6103.58c614.02,125.61 1136.81,279.96 1739.27,512.06l181.02 0 0 71.1c64.05,25.62 129.11,52.1 195.42,79.54l352.87 144.64 0 1420.57 1167.57 0 0 868.98 -1167.57 0 0 2007.29 -2808.03 0c508.82,380.94 1140.68,606.58 1825.25,606.58 841.82,0 1603.93,-341.19 2155.55,-892.81 551.62,-551.62 892.81,-1313.73 892.81,-2155.55 0,-841.82 -341.19,-1603.93 -892.81,-2155.55 -551.62,-551.62 -1313.73,-892.81 -2155.55,-892.81 -539.48,0 -1046.22,140.13 -1485.8,385.96zm-1743.41 5104.18l-304.83 0 -4516.83 0 7.07 -2159 10.58 -2159 211.73 -81.14c1097.45,-433.92 2304.29,-740.83 3334.69,-853.72 273.43,-30.62 988.85,-31.41 1585.72,-12.46 12.75,-13.1 25.57,-26.13 38.49,-39.05 732.62,-732.62 1744.72,-1185.77 2862.59,-1185.77 1117.87,0 2129.97,453.15 2862.59,1185.77 732.62,732.62 1185.77,1744.72 1185.77,2862.59 0,1117.87 -453.15,2129.97 -1185.77,2862.59 -732.62,732.62 -1744.72,1185.77 -2862.59,1185.77 -1117.87,0 -2129.97,-453.15 -2862.59,-1185.77 -131.57,-131.58 -254.08,-272.22 -366.62,-420.81z"/>
  <path class="fil1" d="M14695.32 9707.57c-551.62,-551.62 -1313.73,-892.81 -2155.55,-892.81 -841.82,0 -1603.93,341.19 -2155.55,892.81 -551.61,551.62 -892.81,1313.73 -892.81,2155.55 0,841.82 341.2,1603.93 892.81,2155.55 551.62,551.62 1313.73,892.81 2155.55,892.81 841.82,0 1603.93,-341.19 2155.55,-892.81 551.62,-551.62 892.81,-1313.73 892.81,-2155.55 0,-841.82 -341.19,-1603.93 -892.81,-2155.55zm-2590.04 5.21l868.98 0 0 1715.85 1715.86 0 0 868.98 -1715.86 0 0 1715.86 -868.98 0 0 -1715.86 -1715.85 0 0 -868.98 1715.85 0 0 -1715.85z"/>
 </g>
</svg>
